<svg xmlns="http://www.w3.org/2000/svg" width="360" height="740" viewBox="0 0 360 740" font-family="-apple-system, Segoe UI, Roboto, sans-serif">
  <rect width="360" height="740" rx="28" fill="#FFFFFF" stroke="#D9D4CF"/>
  <text x="24" y="52" font-size="22" font-weight="700" fill="#1C1B1F">History</text>
  <text x="336" y="50" font-size="15" fill="#E87A7F" text-anchor="end">Done</text>

  <!-- row template -->
  <g>
    <rect x="24" y="80" width="312" height="80" rx="14" fill="#ECE6E1"/>
    <rect x="38" y="94" width="52" height="52" rx="9" fill="#C8995E"/>
    <text x="104" y="112" font-size="16" font-weight="700" fill="#1C1B1F">Autumn</text>
    <text x="104" y="132" font-size="12" fill="#5C5C5C">Warm · Type IV</text>
    <text x="104" y="150" font-size="11" fill="#9A938C">2026-06-19</text>
    <text x="276" y="126" font-size="13" fill="#E87A7F">Open</text>
    <text x="316" y="126" font-size="13" fill="#E87A7F" text-anchor="end">Delete</text>
  </g>
  <g>
    <rect x="24" y="172" width="312" height="80" rx="14" fill="#ECE6E1"/>
    <rect x="38" y="186" width="52" height="52" rx="9" fill="#9FB1C9"/>
    <text x="104" y="204" font-size="16" font-weight="700" fill="#1C1B1F">Summer</text>
    <text x="104" y="224" font-size="12" fill="#5C5C5C">Cool · Type II</text>
    <text x="104" y="242" font-size="11" fill="#9A938C">2026-06-18</text>
    <text x="276" y="218" font-size="13" fill="#E87A7F">Open</text>
    <text x="316" y="218" font-size="13" fill="#E87A7F" text-anchor="end">Delete</text>
  </g>
  <g>
    <rect x="24" y="264" width="312" height="80" rx="14" fill="#ECE6E1"/>
    <rect x="38" y="278" width="52" height="52" rx="9" fill="#E7C6A8"/>
    <text x="104" y="296" font-size="16" font-weight="700" fill="#1C1B1F">Spring</text>
    <text x="104" y="316" font-size="12" fill="#5C5C5C">Warm · Type II</text>
    <text x="104" y="334" font-size="11" fill="#9A938C">2026-06-17</text>
    <text x="276" y="310" font-size="13" fill="#E87A7F">Open</text>
    <text x="316" y="310" font-size="13" fill="#E87A7F" text-anchor="end">Delete</text>
  </g>

  <text x="180" y="716" font-size="11" fill="#B0AAA4" text-anchor="middle">Mockup — not a live screenshot</text>
</svg>
